<svg width="1080" height="1080" viewBox="0 0 1080 1080" fill="none" xmlns="http://www.w3.org/2000/svg">
  <rect width="1080" height="1080" fill="#EF0B2D"/>
  <path d="M129 341H462L594 513L572 544H495L547 583L532 603H349C324 603 299 595 278 580C258 565 241 545 229 522L129 341Z" fill="#F4F4F4"/>
  <path d="M705 366H914L796 514C782 530 762 538 742 538H613L621 479L705 366Z" fill="#F4F4F4"/>
  <path d="M608 581H824L728 703C710 738 676 759 639 759H407L486 651L565 610L601 646L608 581Z" fill="#F4F4F4"/>
  <path d="M594 513L610 539L659 538L608 581L601 646L565 610L532 603L547 583L495 544H572L594 513Z" fill="#EF0B2D"/>
</svg>
