<svg xmlns="http://www.w3.org/2000/svg" viewBox="0 0 567 54.9"><path d="M.1 49.7c5.7 3.2 11 4.7 16.9 4.7 11.1 0 17.7-6.1 17.7-16.4 0-10.3-7.4-13.2-13.4-16-4.1-1.9-7.7-3.6-7.7-6.8 0-3.2 1.7-5.3 5.5-5.3s6.1.9 10.3 2.9l4.3-8.5c-5-2.9-10-4.3-15.5-4.3-10.6 0-17 5.7-17 15.3 0 9.6 7.4 13.3 13.4 16.2 4.3 2.2 8.1 4 8.1 7.5S20 44.1 16 44.1s-7.1-1.2-11.7-3.5L0 49.7ZM57 6.2c-4.6 0-11.6 0-15.6.1v47.1h11.7V39h3.6c5.3 0 17.8-1.7 17.8-17.7S68.3 6.1 57 6.1Zm-.4 24h-3.4v-15h3.7c5.4 0 6.5 3.1 6.5 8.2s-2.1 7-6.7 7zm52 5.1c0-.1.1-.2.1-.2 3.9-3.1 6.1-7.9 6.1-13.6 0-11.3-9.7-15.3-18.8-15.3-9.1 0-11.6 0-15.6.1v47.1h11.7V39h5.6c2 3.1 4.4 8.1 5.2 14.4h12.9c-1.1-7.2-5-14.4-7.3-18.1zm-13-5.1h-3.5v-15h3.7c5.4 0 6.5 3.1 6.5 8.2s-2.1 7-6.7 7zm27.7-24v47.2h11.8V6.2Zm47 47.2h12.4V6.2h-10.4v30.9L158.2 6.2h-12.8v47.2h10.3V23.7Zm180.3 0h13.9V.5h-10.8v36.9L336.4.5h-13.7v52.9h10.8V16.9ZM211 5.2c-7.1 0-12.3 2-15.7 6.1-3.4 4.1-5.1 10.1-5.1 18.5 0 18.3 5.3 25.1 19.7 25.1 14.4 0 11.4-1.2 16.5-3.8V27.7h-15.5v8h4.9v9.6h-.1c-1.2.5-4 .7-5.2.7-6.2 0-8.6-4.6-8.6-16.3 0-11.7 3.6-15.3 10.9-15.3 7.3 0 6 1.1 9.8 3l3.2-7.9c-4.3-2.7-9.8-4.3-14.9-4.3m212.5 48.2h12.3V15.9h9V6.2h-31.8v9.7h10.5zm28.4-47.2v32c0 11.2 5.5 16.3 17.7 16.3s18.4-5.7 18.4-18V6.2h-12.2v31.4c0 4.8-.3 7.8-5.7 7.8s-6.1-2.4-6.1-7.9V6.2h-12.2zm-217.3 0V45s0 3.7 2.4 6.3c1.5 1.6 3.7 2.4 6.5 2.4 8.5 0 17.9-.3 19.2-.3v-9.2h-16.9V33.9h15.2v-9.1h-15.2v-9.3h16.6V6.3h-27.9zm304.4 0V45s0 3.7 2.4 6.3c1.5 1.6 3.7 2.4 6.5 2.4 8.5 0 17.9-.3 19.2-.3v-9.2h-16.9V33.9h15.2v-9.1h-15.2v-9.3h16.6V6.3h-27.9zm-137.8 0h-18.3l-11.5 47.1h12l1.7-7.5h13.1l1.7 7.5h12.6zM386.3 37l4.9-20.5h.5l5 20.5zm-86.8-1.7c0-.1.1-.2.1-.2 3.9-3.1 6.1-7.9 6.1-13.6 0-11.3-9.7-15.3-18.8-15.3-9.1 0-11.6 0-15.6.1v47.1H283V39h5.6c2 3.1 4.4 8.1 5.2 14.4h12.9c-1.1-7.2-5-14.4-7.3-18.1zm-13-5.1H283v-15h3.7c5.4 0 6.5 3.1 6.5 8.2s-2.1 7-6.7 7zm238.3 5.1c0-.1.1-.2.1-.2 3.9-3.1 6.1-7.9 6.1-13.6 0-11.3-9.7-15.3-18.8-15.3-9.1 0-11.6 0-15.6.1v47.1h11.7V39h5.6c2 3.1 4.4 8.1 5.2 14.4H532c-1.1-7.2-5-14.4-7.3-18.1Zm-13.1-5.1h-3.5v-15h3.7c5.4 0 6.5 3.1 6.5 8.2s-2.1 7-6.7 7z" style="fill:#01324b;stroke-width:0"/></svg>
